<?xml version="1.0" encoding="UTF-8" standalone="no"?>
<!DOCTYPE svg PUBLIC "-//W3C//DTD SVG 1.1//EN" "http://www.w3.org/Graphics/SVG/1.1/DTD/svg11.dtd">
<svg width="100%" height="100%" viewBox="0 0 3469 867" version="1.1" xmlns="http://www.w3.org/2000/svg" xmlns:xlink="http://www.w3.org/1999/xlink" xml:space="preserve" xmlns:serif="http://www.serif.com/" style="fill-rule:evenodd;clip-rule:evenodd;stroke-linejoin:round;stroke-miterlimit:2;">
    <g id="Rand-aus-V-R" serif:id="Rand aus V R" transform="matrix(2.28974,0,0,2.28974,-1508.08,-963.428)">
        <path d="M731.379,725.74L731.379,686.572L810.003,686.572C822.099,686.572 832.083,683.692 839.955,677.932C847.827,672.172 851.763,664.684 851.763,655.468C851.763,650.86 850.707,646.636 848.595,642.796C846.483,638.956 843.603,635.644 839.955,632.86C836.307,630.076 831.891,627.916 826.707,626.38C821.523,624.844 815.955,624.076 810.003,624.076L792.147,624.076C782.931,624.076 774.387,622.588 766.515,619.612C758.643,616.636 751.827,612.412 746.067,606.94C740.307,601.468 735.795,595.036 732.531,587.644C729.267,580.252 727.635,572.044 727.635,563.02C727.635,554.188 729.315,546.028 732.675,538.54C736.035,531.052 740.787,524.524 746.931,518.956C753.075,513.388 760.467,509.02 769.107,505.852C777.747,502.684 787.251,501.1 797.619,501.1L872.211,501.1L872.211,540.268L795.603,540.268C787.347,540.268 780.819,542.524 776.019,547.036C771.219,551.548 768.819,556.972 768.819,563.308C768.819,570.22 771.267,575.98 776.163,580.588C781.059,585.196 787.539,587.5 795.603,587.5L817.779,587.5C827.763,587.5 836.979,589.18 845.427,592.54C853.875,595.9 861.171,600.652 867.315,606.796C873.459,612.94 878.259,620.236 881.715,628.684C885.171,637.132 886.899,646.348 886.899,656.332C886.899,666.508 885.075,675.82 881.427,684.268C877.779,692.716 872.547,700.012 865.731,706.156C858.915,712.3 850.803,717.1 841.395,720.556C831.987,724.012 821.523,725.74 810.003,725.74L731.379,725.74Z" style="fill:url(#_Linear1);fill-rule:nonzero;"/>
        <g transform="matrix(1,0,0,1,-1.74693,0)">
            <path d="M947.955,725.74L908.787,725.74L908.787,501.1L947.955,501.1L947.955,592.396L1014.48,592.396L1014.48,501.1L1053.65,501.1L1053.65,725.74L1014.48,725.74L1014.48,631.564L947.955,631.564L947.955,725.74Z" style="fill:url(#_Linear2);fill-rule:nonzero;"/>
        </g>
        <rect x="1078.71" y="501.1" width="39.168" height="224.64" style="fill:url(#_Linear3);"/>
        <path d="M1126.8,501.1L1173.17,501.1L1269.65,652.876L1269.65,430.301L1308.53,430.301L1308.53,707.884C1308.53,713.836 1307.04,718.54 1304.07,721.996C1301.09,725.452 1297.11,727.18 1292.12,727.18C1287.7,727.18 1283.52,726.316 1279.59,724.588C1275.65,722.86 1272.34,719.884 1269.65,715.66L1126.8,501.1Z" style="fill:url(#_Linear4);fill-rule:nonzero;"/>
        <g transform="matrix(1,0,0,1,6.98771,0)">
            <path d="M1445.04,725.74L1333.59,725.74L1333.59,501.1L1443.32,501.1L1443.32,540.268L1372.76,540.268L1372.76,592.396L1433.52,592.396L1433.52,631.276L1372.76,631.276L1372.76,686.572L1445.04,686.572L1445.04,725.74Z" style="fill:url(#_Linear5);fill-rule:nonzero;"/>
        </g>
        <g transform="matrix(1,0,0,1,14.8489,0)">
            <path d="M1630.8,725.74L1576.08,725.74L1523.48,662.668C1523.48,662.668 1516.39,655.474 1516.39,642.732C1516.39,629.032 1529.79,623.183 1536.15,622.785C1580.6,620.004 1590.77,592.684 1590.77,578.86C1590.77,565.996 1586.88,556.348 1579.11,549.916C1571.33,543.484 1560.24,540.268 1545.84,540.268L1502.64,540.268L1502.64,787.21L1463.48,787.21L1463.48,501.1L1546.71,501.1C1558.42,501.1 1569.46,502.78 1579.83,506.14C1590.19,509.5 1599.17,514.396 1606.76,520.828C1614.34,527.26 1620.34,535.276 1624.76,544.876C1629.17,554.476 1631.38,565.516 1631.38,577.996C1631.38,620.753 1601.51,651.422 1568.99,652.588L1630.8,725.74Z" style="fill:url(#_Linear6);fill-rule:nonzero;"/>
        </g>
        <g transform="matrix(1,0,0,1,14.8489,0)">
            <rect x="1652.4" y="501.1" width="39.168" height="224.64" style="fill:url(#_Linear7);"/>
        </g>
        <g transform="matrix(1,0,0,1,14.8489,0)">
            <path d="M1754.93,569.932L1754.93,725.74L1717.2,725.74L1717.2,520.684C1717.2,514.732 1718.84,509.98 1722.1,506.428C1725.36,502.876 1730.07,501.1 1736.21,501.1C1740.05,501.1 1743.65,501.916 1747.01,503.548C1750.37,505.18 1753.78,508.204 1757.24,512.62L1866.96,656.908L1866.96,501.1L1904.4,501.1L1904.4,706.444C1904.4,720.844 1899.51,728.044 1889.72,728.044C1884.91,728.044 1880.69,726.94 1877.04,724.732C1873.39,722.524 1869.36,719.116 1864.95,714.508L1754.93,569.932Z" style="fill:url(#_Linear8);fill-rule:nonzero;"/>
        </g>
        <g transform="matrix(1,0,0,1,14.8489,0)">
            <path d="M2086.42,592.396L2086.42,725.74L2037.75,725.74C2021.04,725.74 2005.78,722.812 1991.96,716.956C1978.13,711.1 1966.23,703.036 1956.24,692.764C1946.26,682.492 1938.48,670.348 1932.91,656.332C1927.35,642.316 1924.56,627.244 1924.56,611.116C1924.56,594.796 1927.3,579.916 1932.77,566.476C1938.24,553.036 1945.92,541.468 1955.81,531.772C1965.7,522.076 1977.6,514.54 1991.52,509.164C2005.44,503.788 2020.85,501.1 2037.75,501.1L2070.58,501.1L2070.58,540.268L2037.75,540.268C2027,540.268 2017.11,542.14 2008.08,545.884C1999.06,549.628 1991.24,554.764 1984.61,561.292C1977.99,567.82 1972.8,575.644 1969.06,584.764C1965.32,593.884 1963.44,603.724 1963.44,614.284C1963.44,624.844 1965.27,634.54 1968.91,643.372C1972.56,652.204 1977.65,659.836 1984.18,666.268C1990.71,672.7 1998.53,677.692 2007.65,681.244C2016.77,684.796 2026.8,686.572 2037.75,686.572L2049.55,686.572L2049.55,631.276L1997.14,631.276L1997.14,592.396L2086.42,592.396Z" style="fill:url(#_Linear9);fill-rule:nonzero;"/>
        </g>
        <g id="Mit-Cuts" serif:id="Mit Cuts" transform="matrix(0.436732,0,0,0.436732,576.787,125.694)">
            <path d="M1544.72,697.469L209.707,697.469L209.707,781.391L209.701,781.391L209.701,1458.19L209.71,1458.19L209.71,1527.77L2153.97,1527.77L2153.97,1441.47L362.005,1441.47C344.501,1441.47 327.714,1434.52 315.336,1422.14C302.959,1409.76 296.005,1392.97 296.005,1375.47L296.005,849.773C296.005,832.269 302.959,815.482 315.336,803.104C327.714,790.727 344.501,783.773 362.005,783.773L1544.72,783.773L1544.72,697.469ZM1586.47,697.469L1586.47,783.773L3486.74,783.773C3504.24,783.773 3521.03,790.727 3533.41,803.104C3545.79,815.482 3552.74,832.269 3552.74,849.773L3552.74,1375.47C3552.74,1392.97 3545.79,1409.76 3533.41,1422.14C3521.03,1434.52 3504.24,1441.47 3486.74,1441.47L2195.72,1441.47L2195.72,1527.77L3639.08,1527.77L3639.08,1441.47L3639.05,1441.47L3639.05,697.469L1586.47,697.469Z" style="fill:url(#_Linear10);"/>
        </g>
    </g>
    <defs>
        <linearGradient id="_Linear1" x1="0" y1="0" x2="1" y2="0" gradientUnits="userSpaceOnUse" gradientTransform="matrix(1595.377641,-515.342353,515.342353,1595.377641,622.37634,892.864692)"><stop offset="0" style="stop-color:rgb(217,219,224);stop-opacity:1"/><stop offset="1" style="stop-color:rgb(165,170,186);stop-opacity:1"/></linearGradient>
        <linearGradient id="_Linear2" x1="0" y1="0" x2="1" y2="0" gradientUnits="userSpaceOnUse" gradientTransform="matrix(1595.377641,-515.342353,515.342353,1595.377641,624.12327,892.864692)"><stop offset="0" style="stop-color:rgb(217,219,224);stop-opacity:1"/><stop offset="1" style="stop-color:rgb(165,170,186);stop-opacity:1"/></linearGradient>
        <linearGradient id="_Linear3" x1="0" y1="0" x2="1" y2="0" gradientUnits="userSpaceOnUse" gradientTransform="matrix(1595.377641,-515.342353,515.342353,1595.377641,622.37634,892.864692)"><stop offset="0" style="stop-color:rgb(217,219,224);stop-opacity:1"/><stop offset="1" style="stop-color:rgb(165,170,186);stop-opacity:1"/></linearGradient>
        <linearGradient id="_Linear4" x1="0" y1="0" x2="1" y2="0" gradientUnits="userSpaceOnUse" gradientTransform="matrix(1595.377641,-515.342353,515.342353,1595.377641,622.37634,892.864692)"><stop offset="0" style="stop-color:rgb(217,219,224);stop-opacity:1"/><stop offset="1" style="stop-color:rgb(165,170,186);stop-opacity:1"/></linearGradient>
        <linearGradient id="_Linear5" x1="0" y1="0" x2="1" y2="0" gradientUnits="userSpaceOnUse" gradientTransform="matrix(1595.377641,-515.342353,515.342353,1595.377641,615.38863,892.864692)"><stop offset="0" style="stop-color:rgb(217,219,224);stop-opacity:1"/><stop offset="1" style="stop-color:rgb(165,170,186);stop-opacity:1"/></linearGradient>
        <linearGradient id="_Linear6" x1="0" y1="0" x2="1" y2="0" gradientUnits="userSpaceOnUse" gradientTransform="matrix(1595.377641,-515.342353,515.342353,1595.377641,607.52744,892.864692)"><stop offset="0" style="stop-color:rgb(217,219,224);stop-opacity:1"/><stop offset="1" style="stop-color:rgb(165,170,186);stop-opacity:1"/></linearGradient>
        <linearGradient id="_Linear7" x1="0" y1="0" x2="1" y2="0" gradientUnits="userSpaceOnUse" gradientTransform="matrix(1595.377641,-515.342353,515.342353,1595.377641,607.52744,892.864692)"><stop offset="0" style="stop-color:rgb(217,219,224);stop-opacity:1"/><stop offset="1" style="stop-color:rgb(165,170,186);stop-opacity:1"/></linearGradient>
        <linearGradient id="_Linear8" x1="0" y1="0" x2="1" y2="0" gradientUnits="userSpaceOnUse" gradientTransform="matrix(1595.377641,-515.342353,515.342353,1595.377641,607.52744,892.864692)"><stop offset="0" style="stop-color:rgb(217,219,224);stop-opacity:1"/><stop offset="1" style="stop-color:rgb(165,170,186);stop-opacity:1"/></linearGradient>
        <linearGradient id="_Linear9" x1="0" y1="0" x2="1" y2="0" gradientUnits="userSpaceOnUse" gradientTransform="matrix(1595.377641,-515.342353,515.342353,1595.377641,607.52744,892.864692)"><stop offset="0" style="stop-color:rgb(217,219,224);stop-opacity:1"/><stop offset="1" style="stop-color:rgb(165,170,186);stop-opacity:1"/></linearGradient>
        <linearGradient id="_Linear10" x1="0" y1="0" x2="1" y2="0" gradientUnits="userSpaceOnUse" gradientTransform="matrix(3652.990029,-1179.996779,1179.996779,3652.990029,104.38745,1756.616625)"><stop offset="0" style="stop-color:rgb(217,219,224);stop-opacity:1"/><stop offset="1" style="stop-color:rgb(165,170,186);stop-opacity:1"/></linearGradient>
    </defs>
</svg>
